Coordinates
version=1
nRows=17
nColumns=27
inDegrees=yes

Units are S.I. units (second, meters, Newtons, ...)
If the header above contains a line with 'inDegrees', this indicates whether rotational values are in degrees (yes) or radians (no).

endheader
time	pelvis_rotation	pelvis_tilt	pelvis_list	pelvis_tx	pelvis_ty	pelvis_tz	hip_flexion_r	hip_adduction_r	hip_rotation_r	knee_angle_r	knee_rotation_r	knee_adduction_r	knee_angle_r_beta	ankle_angle_r	subtalar_angle_r	mtp_angle_r	hip_flexion_l	hip_adduction_l	hip_rotation_l	knee_angle_l	knee_rotation_l	knee_adduction_l	knee_angle_l_beta	ankle_angle_l	subtalar_angle_l	mtp_angle_l
      3.91500000	     -0.16947863	    -26.37147816	      3.64888824	      0.03114730	      0.79675184	     -1.16829337	     56.42873719	    -32.65627267	     -8.33658933	     44.31755421	      4.77127621	      2.74726214	      0.77348724	      4.57557811	     -3.23382684	      0.00000000	     53.67970491	    -21.84742581	     -2.05270829	     38.47319510	      3.86188016	     -0.81535237	      0.67148393	      3.61402820	     -6.73080701	      0.00000000
      3.92000000	     -0.18041462	    -27.00575825	      3.64693140	      0.02913050	      0.79492085	     -1.16812059	     57.69289265	    -32.79465229	     -7.61662067	     44.98250541	      5.25372887	      2.90248399	      0.78509283	      4.54914115	     -3.74396061	      0.00000000	     54.87749049	    -22.12924228	     -1.70186222	     39.15985053	      4.30439261	     -1.08429688	      0.68346833	      3.66231212	     -7.17305334	      0.00000000
      3.92500000	     -0.36872383	    -25.80325090	      4.14554015	      0.03085318	      0.79431255	     -1.16836439	     56.83651476	    -33.38831584	     -7.60825649	     45.26376159	      5.31182239	      3.75512139	      0.79000167	      4.75389967	     -3.88705382	      0.00000000	     53.20586786	    -21.97641116	     -3.39069394	     39.06598520	      3.98775495	     -2.19213269	      0.68183007	      3.79077265	     -7.33976033	      0.00000000
      3.93000000	     -0.79274801	    -26.56248985	      3.85270480	      0.02840214	      0.79243899	     -1.16783832	     58.34305486	    -32.92017799	     -6.62980794	     45.88166931	      5.56246694	      3.65534209	      0.80078620	      4.71426830	     -4.26966817	      0.00000000	     54.50383859	    -22.72587854	     -3.18732856	     39.85446333	      4.44825413	     -2.46738296	      0.69559161	      3.91020508	     -7.62859590	      0.00000000
      3.93500000	     -0.64347088	    -27.03898076	      3.80190678	      0.02665691	      0.79078711	     -1.16763444	     59.23182912	    -33.08646602	     -6.43512395	     46.44165066	      5.82708707	      3.86387517	      0.81055971	      4.71710342	     -4.63444657	      0.00000000	     55.57844135	    -22.86698266	     -2.64228549	     40.44775080	      4.72273596	     -2.66196769	      0.70594643	      3.97484220	     -7.90354550	      0.00000000
      3.94000000	     -0.27284221	    -26.07374378	      3.97818387	      0.02798419	      0.79019218	     -1.16779275	     58.05172048	    -33.79912129	     -7.52139541	     46.62514497	      5.78089670	      4.75780347	      0.81376229	      4.96835854	     -4.60446772	      0.00000000	     54.68628768	    -22.59098554	     -3.08396678	     40.51285324	      4.47928393	     -3.39837528	      0.70708268	      4.04067536	     -8.03492477	      0.00000000
      3.94500000	     -0.29254481	    -27.03891276	      3.55455070	      0.02565777	      0.78806707	     -1.16723740	     59.53750581	    -33.50513868	     -7.62705954	     47.39263281	      5.44996791	      4.44499927	      0.82715748	      5.20452386	     -3.52115553	      0.00000000	     56.58466988	    -23.15100309	     -2.19033785	     41.51135222	      4.71603540	     -3.15379049	      0.72450977	      4.50679546	     -7.29682344	      0.00000000
      3.95000000	     -0.23117581	    -26.13636315	      3.54958100	      0.02627477	      0.78769448	     -1.16726197	     58.37827344	    -33.83465904	     -8.02353754	     47.30240026	      5.93942584	      5.45996822	      0.82558263	      5.09425724	     -5.00982358	      0.00000000	     55.64836764	    -23.19174206	     -2.52885518	     41.45492924	      4.84196652	     -4.09974377	      0.72352501	      4.19423637	     -8.45604557	      0.00000000
      3.95500000	     -0.22324498	    -26.82828901	      3.36999821	      0.02409078	      0.78595282	     -1.16703763	     59.54089256	    -33.79064988	     -7.69565665	     47.85332197	      6.14216741	      5.49173044	      0.83519803	      5.08350564	     -5.18533729	      0.00000000	     57.00148461	    -23.49786506	     -1.84814599	     42.12067011	      5.21637740	     -4.21122352	      0.73514438	      4.24624945	     -8.75461537	      0.00000000
      3.96000000	     -0.11430209	    -26.39527038	      3.50675555	      0.02410533	      0.78499635	     -1.16713875	     59.26393658	    -34.19162995	     -7.96853128	     48.14712055	      6.21056355	      5.99911764	      0.84032578	      5.19450913	     -5.30158470	      0.00000000	     56.71117731	    -23.43280106	     -2.12860385	     42.34658195	      5.15844322	     -4.67475591	      0.73908728	      4.30431953	     -8.88918848	      0.00000000
      3.96500000	     -0.19026284	    -26.31812017	      3.42562223	      0.02345948	      0.78389224	     -1.16702668	     59.41802563	    -34.24642391	     -8.03027010	     48.44977969	      6.27017319	      6.34801816	      0.84560818	      5.23302843	     -5.47143917	      0.00000000	     56.89959404	    -23.67258193	     -2.17981016	     42.70810442	      5.26999151	     -5.06954074	      0.74539704	      4.38279575	     -9.07015255	      0.00000000
      3.97000000	     -0.47183416	    -26.40716226	      3.47573609	      0.02237277	      0.78257340	     -1.16696370	     60.08813877	    -34.21685432	     -7.44487600	     48.87088541	      6.41518289	      6.53843507	      0.85295786	      5.25507278	     -5.67145354	      0.00000000	     57.13073282	    -23.97774901	     -2.49317353	     43.08641254	      5.43489010	     -5.40193751	      0.75199976	      4.46356536	     -9.22802528	      0.00000000
      3.97500000	     -0.49187459	    -27.16909547	      3.26256675	      0.02013296	      0.78079648	     -1.16672487	     61.30911765	    -34.11692813	     -7.10892290	     49.39850123	      6.61057401	      6.54671361	      0.86216649	      5.27727587	     -5.83116457	      0.00000000	     58.56566918	    -24.33124734	     -1.74636218	     43.75332699	      5.85494430	     -5.46627855	      0.76363961	      4.50721541	     -9.51706073	      0.00000000
      3.98000000	     -0.08534561	    -27.68660447	      2.93387642	      0.01848558	      0.77914929	     -1.16657576	     61.83251466	    -34.24981796	     -7.72829952	     49.83477208	      6.38734421	      6.11381566	      0.86978085	      5.58914846	     -4.48640576	      0.00000000	     60.02869694	    -24.35503852	     -0.48571850	     44.45713594	      5.85682378	     -4.89754944	      0.77592340	      4.91635010	     -8.36750600	      0.00000000
      3.98500000	      0.20389077	    -27.95522778	      2.84728596	      0.01758037	      0.77798590	     -1.16653638	     62.09530054	    -34.60933720	     -8.16385740	     50.15022939	      6.78953276	      7.10332574	      0.87528662	      5.50648281	     -5.91533205	      0.00000000	     60.79053521	    -24.45486675	      0.02518698	     44.82161678	      6.38156488	     -5.68221793	      0.78228479	      4.57267649	     -9.86598065	      0.00000000
      3.99000000	     -0.98320278	    -26.93318741	      3.90931621	      0.01803239	      0.77717222	     -1.16704937	     62.75820254	    -34.63731298	     -5.52201058	     50.59452148	      7.04011137	      7.28361787	      0.88304098	      5.41664133	     -6.21848122	      0.00000000	     58.45182317	    -24.68314331	     -3.20519088	     44.61083301	      6.05439176	     -6.55559826	      0.77860592	      4.74045439	     -9.79870148	      0.00000000
      3.99500000	     -0.74355743	    -27.45355895	      3.63355750	      0.01648744	      0.77566136	     -1.16687649	     63.36432702	    -34.72276641	     -5.85458800	     50.98703113	      7.13660478	      7.45871165	      0.88989157	      5.47620376	     -6.29428140	      0.00000000	     59.70249036	    -24.90583968	     -2.27335871	     45.17788882	      6.41326842	     -6.64478949	      0.78850291	      4.77938498	    -10.02461552	      0.00000000
